{"accessors" : [{"bufferView" : 0, "byteOffset" : 0, "componentType" : 5125, "count" : 91146, "type" : "SCALAR", "max" : [90886], "min" : [0]}, {"bufferView" : 1, "byteOffset" : 0, "componentType" : 5126, "count" : 90887, "type" : "VEC3", "max" : [18.693449020385742, 6.305619716644287, 7.250639915466309], "min" : [-18.620820999145508, -13.287939071655273, -7.350641250610352], "name" : "POSITION"}, {"bufferView" : 1, "byteOffset" : 12, "componentType" : 5126, "count" : 90887, "type" : "VEC3", "max" : [1.0000032186508179, 1.0000044107437134, 1.0000044107437134], "min" : [-1.0000032186508179, -1.0000044107437134, -1.0000044107437134], "name" : "NORMAL"}], "asset" : {"generator" : "Aspose.3D 23.2", "version" : "2.0"}, "buffers" : [{"uri" : "data:application/octet-stream;base64,", "byteLength" : 2552096}], "bufferViews" : [{"buffer" : 0, "byteOffset" : 0, "byteLength" : 364584, "target" : 34963}, {"buffer" : 0, "byteOffset" : 364588, "byteLength" : 2187504, "byteStride" : 24, "target" : 34962}], "meshes" : [{"primitives" : [{"attributes" : {"POSITION" : 1, "NORMAL" : 2}, "indices" : 0, "mode" : 4}], "name" : ""}], "nodes" : [{"mesh" : 0, "name" : ""}], "scene" : 0, "scenes" : [{"nodes" : [0]}]}