{"accessors" : [{"bufferView" : 0, "byteOffset" : 0, "componentType" : 5123, "count" : 9084, "type" : "SCALAR", "max" : [9080], "min" : [0]}, {"bufferView" : 1, "byteOffset" : 0, "componentType" : 5126, "count" : 9081, "type" : "VEC3", "max" : [14.286967277526855, 20.329999923706055, 14.275050163269043], "min" : [-14.286967277526855, -12.520000457763672, -14.275050163269043], "name" : "POSITION"}, {"bufferView" : 1, "byteOffset" : 12, "componentType" : 5126, "count" : 9081, "type" : "VEC3", "max" : [0.997774064540863, 0.9954275488853455, 0.998607337474823], "min" : [-0.997774064540863, -0.9592540860176086, -0.998607337474823], "name" : "NORMAL"}], "asset" : {"generator" : "Aspose.3D 23.2", "version" : "2.0"}, "buffers" : [{"uri" : "data:application/octet-stream;base64,", "byteLength" : 236192}], "bufferViews" : [{"buffer" : 0, "byteOffset" : 0, "byteLength" : 18168, "target" : 34963}, {"buffer" : 0, "byteOffset" : 18172, "byteLength" : 218016, "byteStride" : 24, "target" : 34962}], "meshes" : [{"primitives" : [{"attributes" : {"POSITION" : 1, "NORMAL" : 2}, "indices" : 0, "mode" : 4}], "name" : ""}], "nodes" : [{"mesh" : 0, "name" : ""}], "scene" : 0, "scenes" : [{"nodes" : [0]}]}